<?xml version="1.0"?>
<svg version="1.1" xmlns="http://www.w3.org/2000/svg" width="220" height="50" style=""><path fill="#4be3b3" d="M42.28515625,34.43359375q0,7.05078125-4.013671875,10.80078125t-11.591796875,3.75l-8.0859375,0l0-28.5546875l8.96484375,0q6.9921875,0,10.859375,3.69140625t3.8671875,10.3125z M35.99609375,34.58984375q0-9.19921875-8.125-9.19921875l-3.22265625,0l0,18.59375l2.59765625,0q8.75,0,8.75-9.39453125z M59.5267578125,30.9765625q-1.89453125,0-2.96875,1.201171875t-1.23046875,3.408203125l8.359375,0q-0.0390625-2.20703125-1.15234375-3.408203125t-3.0078125-1.201171875z M60.3666015625,49.375q-5.2734375,0-8.2421875-2.91015625t-2.96875-8.2421875q0-5.48828125,2.744140625-8.486328125t7.587890625-2.998046875q4.62890625,0,7.20703125,2.63671875t2.578125,7.28515625l0,2.890625l-14.08203125,0q0.09765625,2.5390625,1.50390625,3.96484375t3.9453125,1.42578125q1.97265625,0,3.73046875-0.41015625t3.671875-1.30859375l0,4.609375q-1.5625,0.78125-3.33984375,1.162109375t-4.3359375,0.380859375z M82.061328125,48.984375l-8.3203125-21.8359375l6.23046875,0l4.21875,12.44140625q0.703125,2.36328125,0.87890625,4.47265625l0.1171875,0q0.09765625-1.875,0.87890625-4.47265625l4.19921875-12.44140625l6.23046875,0l-8.3203125,21.8359375l-6.11328125,0z M114.9279296875,48.984375l-6.875-22.40234375l-0.17578125,0q0.37109375,6.8359375,0.37109375,9.12109375l0,13.28125l-5.41015625,0l0-28.5546875l8.2421875,0l6.7578125,21.8359375l0.1171875,0l7.16796875-21.8359375l8.2421875,0l0,28.5546875l-5.64453125,0l0-13.515625q0-0.95703125,0.029296875-2.20703125t0.263671875-6.640625l-0.17578125,0l-7.36328125,22.36328125l-5.546875,0z M156.70078125,48.984375l-1.15234375-2.96875l-0.15625,0q-1.50390625,1.89453125-3.095703125,2.626953125t-4.150390625,0.732421875q-3.14453125,0-4.951171875-1.796875t-1.806640625-5.1171875q0-3.4765625,2.431640625-5.126953125t7.333984375-1.826171875l3.7890625-0.1171875l0-0.95703125q0-3.3203125-3.3984375-3.3203125q-2.6171875,0-6.15234375,1.58203125l-1.97265625-4.0234375q3.76953125-1.97265625,8.359375-1.97265625q4.39453125,0,6.73828125,1.9140625t2.34375,5.8203125l0,14.55078125l-4.16015625,0z M154.94296875,38.8671875l-2.3046875,0.078125q-2.59765625,0.078125-3.8671875,0.9375t-1.26953125,2.6171875q0,2.51953125,2.890625,2.51953125q2.0703125,0,3.310546875-1.19140625t1.240234375-3.1640625l0-1.796875z M181.9306640625,26.73828125q1.2109375,0,2.01171875,0.17578125l-0.44921875,5.5859375q-0.72265625-0.1953125-1.7578125-0.1953125q-2.8515625,0-4.443359375,1.46484375t-1.591796875,4.1015625l0,11.11328125l-5.95703125,0l0-21.8359375l4.51171875,0l0.87890625,3.671875l0.29296875,0q1.015625-1.8359375,2.744140625-2.958984375t3.759765625-1.123046875z M199.523828125,49.375q-10.1953125,0-10.1953125-11.19140625q0-5.56640625,2.7734375-8.505859375t7.94921875-2.939453125q3.7890625,0,6.796875,1.484375l-1.7578125,4.609375q-1.40625-0.56640625-2.6171875-0.927734375t-2.421875-0.361328125q-4.6484375,0-4.6484375,6.6015625q0,6.40625,4.6484375,6.40625q1.71875,0,3.18359375-0.458984375t2.9296875-1.435546875l0,5.09765625q-1.4453125,0.91796875-2.919921875,1.26953125t-3.720703125,0.3515625z"/><path fill="#" d=""/></svg>
